<?xml version="1.0" standalone="no"?>
<!DOCTYPE svg PUBLIC "-//W3C//DTD SVG 20010904//EN"
 "http://www.w3.org/TR/2001/REC-SVG-20010904/DTD/svg10.dtd">
<svg version="1.0" xmlns="http://www.w3.org/2000/svg"
 width="218.000000pt" height="79.000000pt" viewBox="0 0 218.000000 79.000000"
 preserveAspectRatio="xMidYMid meet">
<metadata>
Created by potrace 1.15, written by Peter Selinger 2001-2017
</metadata>
<g transform="translate(0.000000,79.000000) scale(0.100000,-0.100000)"
fill="#000000" stroke="none">
<path d="M85 766 c-23 -14 -51 -43 -64 -66 -20 -36 -22 -52 -19 -113 5 -88 44
-217 65 -217 9 0 12 6 9 18 -36 112 -56 191 -56 214 0 70 66 149 134 162 97
18 197 -62 195 -159 0 -22 -15 -92 -33 -155 l-34 -115 -111 -3 -111 -3 0 -29
0 -30 105 0 c63 0 105 -4 105 -10 0 -6 -38 -10 -95 -10 l-95 0 0 -30 0 -30 88
-2 87 -2 -77 -3 c-43 -2 -78 -8 -78 -14 0 -5 18 -39 41 -74 l41 -65 744 0
c655 0 744 2 744 15 0 13 -88 15 -731 15 l-731 0 22 34 c15 25 17 36 9 42 -7
4 -17 0 -24 -9 -17 -23 -48 -21 -63 3 -12 19 -10 20 58 20 l70 0 0 35 0 34
-87 4 -88 3 98 2 97 2 0 30 0 30 -105 0 c-63 0 -105 4 -105 10 0 6 43 10 108
10 l107 0 39 139 c43 156 44 198 1 262 -50 77 -179 104 -260 55z"/>
<path d="M1073 781 c-175 -7 -201 -14 -169 -50 20 -22 19 -22 -49 -33 -12 -2
-19 -11 -19 -21 1 -12 -6 -17 -25 -17 -15 0 -51 -15 -80 -34 -55 -36 -87 -50
-133 -60 -21 -5 -34 -19 -53 -56 -13 -27 -41 -61 -60 -76 -47 -35 -46 -61 2
-70 86 -16 374 15 973 106 179 27 414 61 523 76 126 17 197 31 197 39 0 6 -6
23 -12 38 -11 21 -24 29 -67 38 -30 6 -67 20 -82 31 -17 13 -61 25 -125 34
-54 8 -126 22 -159 31 -88 23 -397 34 -662 24z m378 -18 c6 -6 42 -8 82 -5 77
4 190 -12 195 -28 2 -6 29 -10 60 -10 89 0 185 -18 202 -38 8 -10 41 -24 72
-31 65 -14 78 -25 48 -41 -23 -12 -73 -5 -105 16 -11 7 -42 16 -70 19 -27 4
-70 16 -95 27 -33 14 -84 21 -190 28 -80 5 -174 14 -210 20 -39 7 -146 10
-267 7 -143 -2 -208 0 -224 8 -39 22 -1 29 153 30 80 0 150 4 155 9 11 11 182
1 194 -11z m-519 -134 c19 -10 19 -12 3 -29 -24 -26 -106 -42 -195 -38 l-75 3
47 28 c50 29 63 33 53 17 -3 -5 -1 -10 5 -10 7 0 10 7 6 15 -3 8 3 19 12 25
20 12 114 5 144 -11z m1212 -39 c-6 -6 -91 -21 -190 -34 -98 -14 -363 -52
-589 -85 -225 -33 -465 -67 -532 -75 -150 -19 -348 -29 -313 -17 14 5 54 10
90 10 36 1 99 8 140 16 41 8 131 20 200 26 69 6 161 22 205 35 44 13 136 28
205 34 69 6 165 18 214 26 78 13 286 40 486 64 99 11 95 11 84 0z m-539 -19
c46 -6 48 -7 20 -13 -31 -7 -122 -18 -204 -24 -25 -2 -83 -8 -129 -14 -93 -13
-122 -9 -102 15 28 34 276 56 415 36z"/>
<path d="M930 307 c-14 -7 -33 -28 -43 -47 -51 -102 74 -198 162 -124 26 22
31 33 31 71 0 55 -12 78 -50 98 -35 18 -67 19 -100 2z m88 -33 c73 -51 24
-152 -63 -130 -22 6 -55 50 -55 75 0 5 12 23 26 40 29 34 58 39 92 15z"/>
<path d="M1738 306 c-16 -8 -28 -11 -28 -5 0 5 -4 9 -10 9 -6 0 -10 -58 -10
-155 0 -97 4 -155 10 -155 6 0 10 28 10 65 0 60 9 80 25 55 8 -14 71 -13 98 2
35 18 46 40 47 90 0 82 -74 131 -142 94z m89 -38 c29 -27 31 -80 3 -108 -53
-53 -136 6 -109 78 20 54 66 67 106 30z"/>
<path d="M2020 292 c-25 -26 -30 -38 -30 -79 0 -26 6 -55 13 -64 28 -36 88
-50 128 -29 13 7 19 7 19 0 0 -5 7 -10 15 -10 12 0 15 18 15 100 0 97 -1 100
-22 99 -13 0 -42 3 -65 7 -38 6 -45 4 -73 -24z m100 -12 c31 -16 41 -63 22
-102 -15 -29 -22 -33 -57 -33 -35 0 -42 4 -57 34 -34 67 28 135 92 101z"/>
</g>
</svg>
